<svg xmlns="http://www.w3.org/2000/svg" width="1200" height="520" viewBox="0 0 1200 520">
  <rect width="1200" height="520" fill="#f8fafc"/>
  <text x="60" y="60" font-size="32" font-family="Arial" font-weight="700" fill="#0f172a">Policy-MME Diagnostic Pipeline</text>
  <g font-family="Arial" font-size="18">
    <rect x="70" y="110" width="220" height="110" rx="18" fill="#dbeafe" stroke="#2563eb" stroke-width="3"/>
    <text x="95" y="150" fill="#1e3a8a" font-weight="700">Input Material</text>
    <text x="95" y="180" fill="#1e40af">PPO + RL evaluation</text>
    <text x="95" y="205" fill="#1e40af">problem statement</text>

    <rect x="370" y="110" width="240" height="110" rx="18" fill="#dcfce7" stroke="#16a34a" stroke-width="3"/>
    <text x="395" y="145" fill="#14532d" font-weight="700">Capability Hierarchy</text>
    <text x="395" y="175" fill="#166534">L1 stability</text>
    <text x="395" y="200" fill="#166534">L2 robustness · L3 faithfulness</text>

    <rect x="700" y="110" width="240" height="110" rx="18" fill="#fef3c7" stroke="#d97706" stroke-width="3"/>
    <text x="725" y="145" fill="#78350f" font-weight="700">Grouped Scoring</text>
    <text x="725" y="175" fill="#92400e">penalize fragmented wins</text>
    <text x="725" y="200" fill="#92400e">reward consistent evidence</text>

    <rect x="430" y="320" width="340" height="110" rx="18" fill="#ede9fe" stroke="#7c3aed" stroke-width="3"/>
    <text x="460" y="360" fill="#4c1d95" font-weight="700">Paper Output</text>
    <text x="460" y="390" fill="#5b21b6">claim-grounded sections</text>
    <text x="460" y="415" fill="#5b21b6">explainable writing rationale</text>

    <path d="M295 165 L360 165" stroke="#334155" stroke-width="4" marker-end="url(#arrow)"/>
    <path d="M615 165 L690 165" stroke="#334155" stroke-width="4" marker-end="url(#arrow)"/>
    <path d="M820 230 C790 300 720 325 650 330" stroke="#334155" stroke-width="4" fill="none" marker-end="url(#arrow)"/>
    <path d="M495 230 C500 285 525 310 565 330" stroke="#334155" stroke-width="4" fill="none" marker-end="url(#arrow)"/>
  </g>
  <defs><marker id="arrow" markerWidth="10" markerHeight="10" refX="8" refY="3" orient="auto"><path d="M0,0 L0,6 L9,3 z" fill="#334155"/></marker></defs>
</svg>
