<svg xmlns="http://www.w3.org/2000/svg" width="1200" height="620" viewBox="0 0 1200 620"><rect width="1200" height="620" fill="#ffffff"/><text x="70" y="60" font-size="32" font-family="Arial" font-weight="700" fill="#111827">Synthetic Policy-MME Score Comparison</text><text x="70" y="95" font-size="18" font-family="Arial" fill="#6b7280">Demo numbers only: illustrate diagnostic reporting, not empirical claims.</text><text x="70" y="492" font-size="22" font-family="Arial" font-weight="700" fill="#111827">PPO</text><rect x="150" y="462" width="408.7" height="42" rx="10" fill="#2563eb"/><text x="576.7" y="490" font-size="22" font-family="Arial" fill="#111827">52.4</text><text x="70" y="402" font-size="22" font-family="Arial" font-weight="700" fill="#111827">SAC</text><rect x="150" y="372" width="454.0" height="42" rx="10" fill="#16a34a"/><text x="622.0" y="400" font-size="22" font-family="Arial" fill="#111827">58.2</text><text x="70" y="312" font-size="22" font-family="Arial" font-weight="700" fill="#111827">TD3</text><rect x="150" y="282" width="387.7" height="42" rx="10" fill="#f97316"/><text x="555.7" y="310" font-size="22" font-family="Arial" fill="#111827">49.7</text><text x="70" y="222" font-size="22" font-family="Arial" font-weight="700" fill="#111827">Oracle</text><rect x="150" y="192" width="693.4" height="42" rx="10" fill="#7c3aed"/><text x="861.4" y="220" font-size="22" font-family="Arial" fill="#111827">88.9</text><line x1="150" y1="520" x2="930" y2="520" stroke="#d1d5db" stroke-width="2"/><text x="150" y="560" font-size="16" font-family="Arial" fill="#6b7280">0</text><text x="910" y="560" font-size="16" font-family="Arial" fill="#6b7280">100</text><rect x="975" y="155" width="150" height="170" rx="16" fill="#f3f4f6" stroke="#d1d5db"/><text x="995" y="195" font-size="18" font-family="Arial" font-weight="700" fill="#111827">Takeaway</text><text x="995" y="230" font-size="15" font-family="Arial" fill="#374151">Average return can</text><text x="995" y="255" font-size="15" font-family="Arial" fill="#374151">hide robustness and</text><text x="995" y="280" font-size="15" font-family="Arial" fill="#374151">faithfulness failures.</text></svg>
